<?xml version="1.0" encoding="UTF-8" standalone="no"?>
<!-- Created with Inkscape (http://www.inkscape.org/) -->

<svg
   width="210mm"
   height="297mm"
   viewBox="0 0 210 297"
   version="1.1"
   id="svg5"
   inkscape:version="1.1.2 (b8e25be833, 2022-02-05)"
   sodipodi:docname="use.svg"
   inkscape:export-filename="\\wsl.localhost\Ubuntu-20.04\home\tomo\site\materials\home\view.png"
   inkscape:export-xdpi="200"
   inkscape:export-ydpi="200"
   xmlns:inkscape="http://www.inkscape.org/namespaces/inkscape"
   xmlns:sodipodi="http://sodipodi.sourceforge.net/DTD/sodipodi-0.dtd"
   xmlns="http://www.w3.org/2000/svg"
   xmlns:svg="http://www.w3.org/2000/svg">
  <sodipodi:namedview
     id="namedview7"
     pagecolor="#505050"
     bordercolor="#ffffff"
     borderopacity="1"
     inkscape:pageshadow="0"
     inkscape:pageopacity="0"
     inkscape:pagecheckerboard="1"
     inkscape:document-units="px"
     showgrid="false"
     inkscape:zoom="0.88638134"
     inkscape:cx="354.81343"
     inkscape:cy="191.79104"
     inkscape:window-width="1920"
     inkscape:window-height="1009"
     inkscape:window-x="-8"
     inkscape:window-y="-8"
     inkscape:window-maximized="1"
     inkscape:current-layer="layer1"
     showguides="true"
     inkscape:guide-bbox="true"
     inkscape:snap-bbox="true"
     inkscape:snap-bbox-midpoints="true"
     inkscape:snap-nodes="true"
     inkscape:snap-others="false"
     inkscape:bbox-paths="true"
     inkscape:bbox-nodes="true">
    <sodipodi:guide
       position="177.26513,84.138015"
       orientation="0,-1"
       id="guide2789" />
    <sodipodi:guide
       position="61.018917,297"
       orientation="0,1"
       id="guide4756"
       inkscape:label=""
       inkscape:locked="false"
       inkscape:color="rgb(0,0,255)" />
    <sodipodi:guide
       position="0,276.23838"
       orientation="-1,0"
       id="guide4758"
       inkscape:label=""
       inkscape:locked="false"
       inkscape:color="rgb(0,0,255)" />
    <sodipodi:guide
       position="166.34618,267.89583"
       orientation="0,1"
       id="guide4889"
       inkscape:label=""
       inkscape:locked="false"
       inkscape:color="rgb(0,0,255)" />
    <sodipodi:guide
       position="189.51003,138.25"
       orientation="0,1"
       id="guide5534"
       inkscape:label=""
       inkscape:locked="false"
       inkscape:color="rgb(0,0,255)" />
    <sodipodi:guide
       position="142.875,284.0557"
       orientation="1,0"
       id="guide1447" />
    <sodipodi:guide
       position="84.666667,212.14286"
       orientation="1,0"
       id="guide1449" />
    <sodipodi:guide
       position="87.312496,200.63681"
       orientation="1,0"
       id="guide1451" />
    <sodipodi:guide
       position="32.360774,154.125"
       orientation="0,1"
       id="guide1453"
       inkscape:label=""
       inkscape:locked="false"
       inkscape:color="rgb(0,0,255)" />
    <sodipodi:guide
       position="29.104167,195.24335"
       orientation="-1,0"
       id="guide1455"
       inkscape:label=""
       inkscape:locked="false"
       inkscape:color="rgb(0,0,255)" />
    <sodipodi:guide
       position="-92.949055,274.62922"
       orientation="1,0"
       id="guide972" />
  </sodipodi:namedview>
  <defs
     id="defs2">
    <marker
       style="overflow:visible"
       id="Arrow1Lstart"
       refX="0.0"
       refY="0.0"
       orient="auto"
       inkscape:stockid="Arrow1Lstart"
       inkscape:isstock="true">
      <path
         transform="scale(0.8) translate(12.5,0)"
         style="fill-rule:evenodd;fill:context-stroke;stroke:context-stroke;stroke-width:1.0pt"
         d="M 0.0,0.0 L 5.0,-5.0 L -12.5,0.0 L 5.0,5.0 L 0.0,0.0 z "
         id="path2971" />
    </marker>
  </defs>
  <g
     inkscape:label="Layer 1"
     inkscape:groupmode="layer"
     id="layer1">
    <path
       id="rect1109"
       style="fill:#e1daee;fill-opacity:1;stroke:none;stroke-width:4.23318;stroke-linecap:round;stroke-linejoin:round;stroke-miterlimit:4;stroke-dasharray:none;stroke-opacity:1"
       d="M 340.66602 110 C 334.75666 110 330 114.75666 330 120.66602 L 330 419.33398 C 330 425.24334 334.75666 430 340.66602 430 L 529.33398 430 C 535.24334 430 540 425.24334 540 419.33398 L 540 120.66602 C 540 114.75666 535.24334 110 529.33398 110 L 340.66602 110 z M 432.5 145 L 437.5 145 C 458.275 145 475 161.725 475 182.5 L 475 357.5 C 475 378.275 458.275 395 437.5 395 L 432.5 395 C 411.725 395 395 378.275 395 357.5 L 395 182.5 C 395 161.725 411.725 145 432.5 145 z "
       transform="scale(0.26458333)"
       inkscape:export-filename="\\wsl.localhost\Ubuntu-20.04\home\tomo\site\materials\home\middle.png"
       inkscape:export-xdpi="200"
       inkscape:export-ydpi="200" />
    <rect
       style="fill:#d1e1f2;fill-opacity:1;stroke:none;stroke-width:1.05833;stroke-linecap:round;stroke-linejoin:round;stroke-miterlimit:4;stroke-dasharray:none;stroke-opacity:1"
       id="rect1215"
       width="26.458334"
       height="26.458334"
       x="116.41667"
       y="116.41667"
       ry="2.6459036"
       inkscape:export-filename="\\wsl.localhost\Ubuntu-20.04\home\tomo\site\materials\home\command.png"
       inkscape:export-xdpi="200"
       inkscape:export-ydpi="200" />
    <rect
       style="fill:#f8dad5;fill-opacity:1;stroke:none;stroke-width:1.05833;stroke-linecap:round;stroke-linejoin:round;stroke-miterlimit:4;stroke-dasharray:none;stroke-opacity:1"
       id="rect1215-5"
       width="26.458334"
       height="26.458334"
       x="0"
       y="116.41667"
       ry="2.6458273"
       inkscape:export-filename="\\wsl.localhost\Ubuntu-20.04\home\tomo\site\materials\home\long-btn.png"
       inkscape:export-xdpi="200"
       inkscape:export-ydpi="200" />
    <path
       sodipodi:type="star"
       style="fill:#ea9586;fill-opacity:1;stroke:#ea9586;stroke-width:18.6775;stroke-linecap:round;stroke-linejoin:round;stroke-miterlimit:4;stroke-dasharray:none;stroke-opacity:1"
       id="path1394"
       inkscape:flatsided="false"
       sodipodi:sides="3"
       sodipodi:cx="-197.00287"
       sodipodi:cy="170.55952"
       sodipodi:r1="140.08107"
       sodipodi:r2="70.040535"
       sodipodi:arg1="-0.26179939"
       sodipodi:arg2="0.78539816"
       inkscape:rounded="0"
       inkscape:randomized="0"
       transform="matrix(-0.03579909,0.03579909,-0.03579909,-0.03579909,10.509552,142.80424)"
       inkscape:transform-center-x="-1.772986"
       inkscape:transform-center-y="-9.5850206e-06"
       d="m -61.694945,134.30388 -85.781785,85.78178 -85.78179,85.78179 -31.39831,-117.1801 -31.39831,-117.1801 117.1801,31.39831 z"
       inkscape:export-filename="\\wsl.localhost\Ubuntu-20.04\home\tomo\site\materials\home\long-btn.png"
       inkscape:export-xdpi="200"
       inkscape:export-ydpi="200" />
    <rect
       style="fill:#f4d0df;fill-opacity:1;stroke:none;stroke-width:1.05833;stroke-linecap:round;stroke-linejoin:round;stroke-miterlimit:4;stroke-dasharray:none;stroke-opacity:1"
       id="rect1215-7"
       width="26.458334"
       height="26.458334"
       x="29.104166"
       y="116.41666"
       ry="2.6458502"
       inkscape:export-filename="\\wsl.localhost\Ubuntu-20.04\home\tomo\site\materials\home\circle-btn.png"
       inkscape:export-xdpi="200"
       inkscape:export-ydpi="200" />
    <path
       sodipodi:type="star"
       style="fill:#de7fa6;fill-opacity:1;stroke:#de7fa6;stroke-width:18.6775;stroke-linecap:round;stroke-linejoin:round;stroke-miterlimit:4;stroke-dasharray:none;stroke-opacity:1"
       id="path1394-6"
       inkscape:flatsided="false"
       sodipodi:sides="3"
       sodipodi:cx="-197.00287"
       sodipodi:cy="170.55952"
       sodipodi:r1="140.08107"
       sodipodi:r2="70.040535"
       sodipodi:arg1="-0.26179939"
       sodipodi:arg2="0.78539816"
       inkscape:rounded="0"
       inkscape:randomized="0"
       transform="matrix(-0.03579909,0.03579909,-0.03579909,-0.03579909,39.613718,142.80422)"
       inkscape:transform-center-x="-1.7729865"
       inkscape:transform-center-y="-1.3617124e-06"
       d="m -61.694945,134.30388 -85.781785,85.78178 -85.78179,85.78179 -31.39831,-117.1801 -31.39831,-117.1801 117.1801,31.39831 z"
       inkscape:export-filename="\\wsl.localhost\Ubuntu-20.04\home\tomo\site\materials\home\circle-btn.png"
       inkscape:export-xdpi="200"
       inkscape:export-ydpi="200" />
    <rect
       style="fill:#e1daee;fill-opacity:1;stroke:none;stroke-width:1.05833;stroke-linecap:round;stroke-linejoin:round;stroke-miterlimit:4;stroke-dasharray:none;stroke-opacity:1"
       id="rect1215-8"
       width="26.458334"
       height="26.458334"
       x="58.208336"
       y="116.41667"
       ry="2.6458578"
       inkscape:export-filename="\\wsl.localhost\Ubuntu-20.04\home\tomo\site\materials\home\middle-btn.png"
       inkscape:export-xdpi="200"
       inkscape:export-ydpi="200" />
    <path
       sodipodi:type="star"
       style="fill:#ac98cd;fill-opacity:1;stroke:#ac98cd;stroke-width:18.6775;stroke-linecap:round;stroke-linejoin:round;stroke-miterlimit:4;stroke-dasharray:none;stroke-opacity:1"
       id="path1394-3"
       inkscape:flatsided="false"
       sodipodi:sides="3"
       sodipodi:cx="-197.00287"
       sodipodi:cy="170.55952"
       sodipodi:r1="140.08107"
       sodipodi:r2="70.040535"
       sodipodi:arg1="-0.26179939"
       sodipodi:arg2="0.78539816"
       inkscape:rounded="0"
       inkscape:randomized="0"
       transform="matrix(-0.03579909,0.03579909,-0.03579909,-0.03579909,68.717888,142.80424)"
       inkscape:transform-center-x="-1.7729863"
       inkscape:transform-center-y="-1.2698012e-06"
       d="m -61.694945,134.30388 -85.781785,85.78178 -85.78179,85.78179 -31.39831,-117.1801 -31.39831,-117.1801 117.1801,31.39831 z"
       inkscape:export-filename="\\wsl.localhost\Ubuntu-20.04\home\tomo\site\materials\home\middle-btn.png"
       inkscape:export-xdpi="200"
       inkscape:export-ydpi="200" />
    <rect
       style="fill:#d1e1f2;fill-opacity:1;stroke:none;stroke-width:1.05833;stroke-linecap:round;stroke-linejoin:round;stroke-miterlimit:4;stroke-dasharray:none;stroke-opacity:1"
       id="rect1215-0"
       width="26.458334"
       height="26.458334"
       x="87.312492"
       y="116.41666"
       ry="2.6458807"
       inkscape:export-filename="\\wsl.localhost\Ubuntu-20.04\home\tomo\site\materials\home\command-btn.png"
       inkscape:export-xdpi="200"
       inkscape:export-ydpi="200" />
    <path
       sodipodi:type="star"
       style="fill:#81abd7;fill-opacity:1;stroke:#81abd7;stroke-width:18.6775;stroke-linecap:round;stroke-linejoin:round;stroke-miterlimit:4;stroke-dasharray:none;stroke-opacity:1"
       id="path1394-7"
       inkscape:flatsided="false"
       sodipodi:sides="3"
       sodipodi:cx="-197.00287"
       sodipodi:cy="170.55952"
       sodipodi:r1="140.08107"
       sodipodi:r2="70.040535"
       sodipodi:arg1="-0.26179939"
       sodipodi:arg2="0.78539816"
       inkscape:rounded="0"
       inkscape:randomized="0"
       transform="matrix(-0.03579909,0.03579909,-0.03579909,-0.03579909,97.822045,142.80422)"
       inkscape:transform-center-x="-1.7729871"
       inkscape:transform-center-y="6.5483675e-06"
       d="m -61.694945,134.30388 -85.781785,85.78178 -85.78179,85.78179 -31.39831,-117.1801 -31.39831,-117.1801 117.1801,31.39831 z"
       inkscape:export-filename="\\wsl.localhost\Ubuntu-20.04\home\tomo\site\materials\home\command-btn.png"
       inkscape:export-xdpi="200"
       inkscape:export-ydpi="200" />
    <path
       id="rect848"
       style="fill:#f4d0df;stroke:none;stroke-width:4.26667;stroke-linecap:round;stroke-linejoin:round"
       d="M 10.666016 110 C 4.7566786 110 6.6021304e-17 114.75668 0 120.66602 L 0 419.33398 C -1.1842379e-15 425.24331 4.7566786 430 10.666016 430 L 309.33398 430 C 315.24332 430 320 425.24331 320 419.33398 L 320 120.66602 C 320 114.75668 315.24332 110 309.33398 110 L 10.666016 110 z M 160 145 A 125 125 0 0 1 285 270 A 125 125 0 0 1 160 395 A 125 125 0 0 1 35 270 A 125 125 0 0 1 160 145 z "
       transform="scale(0.26458333)"
       inkscape:export-filename="\\wsl.localhost\Ubuntu-20.04\home\tomo\site\materials\home\circle.png"
       inkscape:export-xdpi="200"
       inkscape:export-ydpi="200" />
    <path
       id="rect961"
       style="fill:#f8dad5;fill-opacity:1;stroke:none;stroke-width:4.15691;stroke-linecap:round;stroke-linejoin:round;stroke-miterlimit:4;stroke-dasharray:none;stroke-opacity:1"
       d="M 10 0 C 4.4600072 -3.5527137e-15 0 4.4600072 0 10 L 0 90 C 1.1842379e-15 95.539993 4.4600072 100 10 100 L 530 100 C 535.53999 100 540 95.539993 540 90 L 540 10 C 540 4.4600072 535.53999 0 530 0 L 10 0 z M 50 35 L 490 35 C 498.31 35 505 41.69 505 50 C 505 58.31 498.31 65 490 65 L 50 65 C 41.69 65 35 58.31 35 50 C 35 41.69 41.69 35 50 35 z "
       transform="scale(0.26458333)"
       inkscape:export-filename="\\wsl.localhost\Ubuntu-20.04\home\tomo\site\materials\home\long.png"
       inkscape:export-xdpi="200"
       inkscape:export-ydpi="200" />
    <path
       style="fill:none;stroke:#ac98cd;stroke-width:2.77751;stroke-linecap:butt;stroke-linejoin:miter;stroke-miterlimit:4;stroke-dasharray:none;stroke-opacity:1"
       d="m 150.92111,123.01669 c 0,0 3.35493,3.83708 6.34687,3.83708 2.99193,0 3.35492,-3.83708 6.34687,-3.83708 2.99193,0 3.35491,3.83708 6.34686,3.83708 2.99194,0 3.35493,-3.83708 6.34686,-3.83708 2.99194,0 3.35494,3.83708 6.34687,3.83708 2.99195,0 3.35492,-3.83708 6.34688,-3.83708 2.99193,0 3.35492,3.83708 6.34685,3.83708 2.99195,0 6.34688,-3.83708 6.34688,-3.83708"
       id="path1623"
       sodipodi:nodetypes="czzzzzzzc"
       inkscape:export-filename="\\wsl.localhost\Ubuntu-20.04\home\tomo\site\materials\home\img\men.png"
       inkscape:export-xdpi="200"
       inkscape:export-ydpi="200" />
  </g>
</svg>
